<?xml version="1.0" encoding="utf-8"?>
<!-- Generator: Adobe Illustrator 25.2.1, SVG Export Plug-In . SVG Version: 6.00 Build 0)  -->
<svg version="1.1" id="Camada_1" xmlns="http://www.w3.org/2000/svg" xmlns:xlink="http://www.w3.org/1999/xlink" x="0px" y="0px"
	 viewBox="0 0 1200 600" style="enable-background:new 0 0 1200 600;" xml:space="preserve">
<style type="text/css">
	.st0{fill:#F7931E;}
	.st1{fill:#0071BC;}
	.st2{fill:#29ABE2;}
	.st3{fill:#FF931E;}
	.st4{fill:#808080;}
	.st5{fill:none;stroke:#0071BC;stroke-width:3;stroke-miterlimit:10;}
	.st6{fill:#FFFFFF;}
</style>
<g>
	<g>
		<path class="st0" d="M625.2,235.6c-4.8,2.1-9.4,3.7-13.9,4.6c-4.5,1-9.3,1.4-14.5,1.4c-14.2,0-25.3-4-33.5-11.9
			c-8.1-7.9-12.2-19.3-12.2-34.1c0-13.8,4.4-25.3,13.3-34.5c8.9-9.2,20.6-13.7,35.2-13.7c4.9,0,9.2,0.3,13,1c3.8,0.7,7.8,1.8,12,3.3
			l-6,16.6c-3.1-1.1-6.1-2-9-2.5s-6-0.8-9.3-0.8c-7.4,0-13.9,2.6-19.4,7.8s-8.2,12.3-8.2,21.2c0,9.2,2.4,16.4,7.1,21.6
			s11.3,7.8,19.6,7.8c2.2,0,4.9-0.3,8.2-1c3.3-0.7,6.8-1.9,10.3-3.5L625.2,235.6z"/>
		<path class="st0" d="M694.2,213.3h-42.4c0.3,4.7,1.9,8.2,4.7,10.5c2.8,2.3,6.7,3.4,11.6,3.4c1.9,0,4.4-0.6,7.7-1.7
			c3.3-1.1,6.5-2.9,9.6-5.3l8.9,11.4c-4.4,3.5-9,6.1-13.7,7.7c-4.7,1.6-9.9,2.4-15.6,2.4c-10.5,0-18.6-2.9-24.4-8.7
			c-5.8-5.8-8.7-13.9-8.7-24.3c0-10.4,3.1-18.8,9.2-25.3s13.9-9.8,23.3-9.8c9,0,16.2,2.7,21.6,8.2c5.4,5.4,8.1,13.3,8.1,23.7v7.8
			H694.2z M675.7,201c0-5-0.9-8.6-2.8-10.8c-1.9-2.1-4.7-3.2-8.5-3.2c-3.2,0-6,1.2-8.3,3.7c-2.3,2.5-3.8,5.9-4.3,10.2h23.9V201z"/>
		<path class="st0" d="M768.9,240.1h-20V204c0-5-0.9-8.8-2.7-11.3c-1.8-2.5-4.5-3.8-8.1-3.8c-3.5,0-6.3,1.3-8.6,4
			c-2.2,2.7-3.4,6.1-3.4,10.2v37.1h-19.9v-65h20v10.1h0.3c2.4-4,5.4-7,8.8-8.9c3.5-2,7.5-3,12.1-3c7.2,0,12.6,2.2,16.2,6.7
			s5.4,11.2,5.4,20.1L768.9,240.1L768.9,240.1z"/>
		<path class="st0" d="M825.4,239c-2,0.8-4.3,1.5-6.8,1.9s-5.1,0.7-7.6,0.7c-7.1,0-12.5-1.7-16.1-5.1c-3.6-3.4-5.4-8.5-5.4-15.4
			v-31.3h-10.5V175h10.5v-15.7l20-5.7v21.5h14.6v14.8h-14.6v30c0,2.5,0.5,4.3,1.5,5.4c1,1.1,2.5,1.7,4.7,1.7c1.1,0,2.1-0.1,3-0.4
			c1-0.3,1.9-0.6,2.8-1L825.4,239z"/>
		<path class="st0" d="M876.4,191.7c-0.8-0.2-1.6-0.3-2.5-0.4c-0.8-0.1-1.8-0.1-2.8-0.1c-5.3,0-9.2,1.6-11.8,4.7
			c-2.6,3.1-3.9,7.5-3.9,13.2v31h-20.1v-65h20.1v12.1h0.3c1.6-4.4,3.8-7.7,6.6-9.9c2.9-2.2,6.4-3.3,10.5-3.3c0.9,0,1.9,0.1,2.8,0.2
			c0.9,0.1,1.9,0.3,2.8,0.5L876.4,191.7z"/>
		<path class="st0" d="M941.2,240.1h-19v-9.3h-0.3c-2.2,3.6-4.9,6.4-8.1,8.2s-6.9,2.7-11,2.7c-5.6,0-10.5-1.7-14.5-5.2
			s-6.1-8.3-6.1-14.5c0-6,2-10.9,6-14.7s10.3-6.3,18.8-7.4l15.3-2v-1.3c0-3.1-1-5.4-3-7s-4.7-2.4-8.3-2.4c-2.7,0-5.6,0.4-8.9,1.3
			s-6.6,2.3-10,4.3l-6.8-11.9c4.4-2.6,8.9-4.5,13.2-5.6c4.4-1.2,9.2-1.7,14.3-1.7c9.7,0,16.8,2.3,21.4,6.9
			c4.6,4.6,6.9,11.6,6.9,20.8L941.2,240.1L941.2,240.1z M922.4,213.7v-4.4l-11.8,1.5c-3.3,0.4-5.7,1.4-7.3,3s-2.4,3.5-2.4,5.9
			c0,2.3,0.8,4.2,2.4,5.6c1.6,1.5,3.7,2.2,6.4,2.2c3.8,0,6.8-1.3,9.2-3.9C921.2,220.9,922.4,217.6,922.4,213.7z"/>
		<path class="st0" d="M957.2,240.1v-96.2h20.1v96.2H957.2z"/>
		<path class="st0" d="M586.2,333.2c-1.8,2.7-3.9,4.7-6.5,6.1c-2.6,1.4-5.6,2-9,2c-6.2,0-11.2-2.2-15.1-6.6
			c-3.8-4.4-5.7-10.6-5.7-18.5c0-8.3,2.1-14.9,6.3-19.9c4.2-5,9.7-7.5,16.5-7.5c3.2,0,6,0.6,8.2,1.7c2.2,1.2,4,2.9,5.3,5.2h0.2V266
			h15.4v74h-15.4v-6.9L586.2,333.2L586.2,333.2z M565.5,315.7c0,4.4,0.9,7.8,2.8,10.2c1.9,2.4,4.4,3.6,7.7,3.6
			c3.1,0,5.7-1.3,7.6-3.8c2-2.5,3-5.8,3-10v-3.8c0-3.3-0.9-6-2.8-8.1c-1.9-2.1-4.3-3.2-7.4-3.2c-3.4,0-6.1,1.3-8,4
			C566.4,307.4,565.5,311.1,565.5,315.7z"/>
		<path class="st0" d="M659.7,319.5h-32.6c0.3,3.6,1.5,6.3,3.6,8.1c2.2,1.8,5.2,2.6,9,2.6c1.4,0,3.4-0.4,5.9-1.3
			c2.5-0.9,5-2.2,7.3-4.1l6.8,8.7c-3.4,2.7-6.9,4.7-10.5,5.9c-3.6,1.2-7.6,1.9-12,1.9c-8.1,0-14.3-2.2-18.8-6.7s-6.7-10.7-6.7-18.7
			s2.4-14.5,7.1-19.5s10.7-7.5,17.9-7.5c6.9,0,12.5,2.1,16.7,6.3c4.2,4.2,6.2,10.3,6.2,18.2L659.7,319.5L659.7,319.5z M645.3,310
			c0-3.9-0.7-6.6-2.2-8.3c-1.4-1.6-3.6-2.5-6.5-2.5c-2.5,0-4.6,1-6.4,2.9c-1.8,1.9-2.9,4.5-3.3,7.9H645.3z"/>
		<path class="st0" d="M750.5,336.6c-3.7,1.6-7.2,2.8-10.7,3.5s-7.2,1.1-11.2,1.1c-10.9,0-19.5-3.1-25.8-9.2
			c-6.3-6.1-9.4-14.8-9.4-26.2c0-10.6,3.4-19.5,10.3-26.5c6.9-7,15.9-10.5,27.1-10.5c3.7,0,7.1,0.3,10,0.8s6,1.4,9.2,2.5l-4.6,12.7
			c-2.4-0.9-4.7-1.5-6.9-1.9c-2.2-0.4-4.6-0.6-7.2-0.6c-5.7,0-10.7,2-14.9,6c-4.2,4-6.3,9.5-6.3,16.3c0,7.1,1.8,12.6,5.5,16.7
			c3.7,4.1,8.7,6,15.1,6c1.7,0,3.8-0.3,6.3-0.8c2.6-0.5,5.2-1.4,7.9-2.7L750.5,336.6z"/>
		<path class="st0" d="M782.7,341.3c-8.3,0-14.9-2.3-19.7-7c-4.8-4.7-7.2-11-7.1-19c0-8.3,2.5-14.7,7.4-19.4c4.9-4.7,11.6-7,20-7
			c8.3,0,14.8,2.3,19.5,7c4.7,4.7,7.1,10.8,7.1,18.6c0,8.3-2.4,14.8-7.3,19.7C797.8,338.9,791.2,341.3,782.7,341.3z M783.2,329.5
			c3.7,0,6.5-1.2,8.3-3.7c1.8-2.5,2.8-6.2,2.8-11.1c0-4.7-0.9-8.2-2.8-10.5c-1.9-2.3-4.7-3.5-8.4-3.5c-3.6,0-6.5,1.3-8.5,3.8
			s-3,6.1-3,10.6c0,4.8,1,8.4,2.9,10.8C776.3,328.3,779.2,329.5,783.2,329.5z"/>
		<path class="st0" d="M899.3,340.1h-15.4v-28.5c0-3.6-0.7-6.4-2-8.2c-1.3-1.8-3.3-2.7-6-2.7c-2.5,0-4.6,1.1-6.2,3.3
			c-1.6,2.2-2.4,4.9-2.4,8.2v28h-15.4v-28.9c0-3.5-0.7-6.2-2-8c-1.3-1.8-3.3-2.6-5.9-2.6c-2.6,0-4.7,1-6.3,3.1
			c-1.6,2.1-2.4,4.9-2.4,8.5v27.8h-15.4v-50h15.4v7.8h0.2c1.6-2.7,3.8-4.8,6.7-6.5s6-2.5,9.4-2.5c3.5,0,6.5,0.8,8.9,2.3
			s4.3,3.9,5.6,7c1.9-3.1,4.3-5.5,7.1-7c2.8-1.5,6-2.3,9.7-2.3c5.4,0,9.5,1.7,12.2,5c2.7,3.4,4.1,8.4,4.1,15.1v31.1H899.3z"/>
		<path class="st0" d="M927.2,334.3h-0.2v28.8h-15.4v-73h15.4v7.5h0.2c1.9-2.9,4.2-5.1,6.9-6.6c2.7-1.4,5.8-2.2,9.2-2.2
			c6.4,0,11.4,2.2,15,6.7c3.5,4.4,5.3,10.5,5.3,18.1c0,8.3-2.1,15-6.2,20.1c-4.1,5-9.6,7.6-16.4,7.6c-3,0-5.7-0.6-8-1.8
			C930.8,338.4,928.8,336.6,927.2,334.3z M926.8,313.7v4c0,3.5,0.9,6.3,2.7,8.4c1.8,2.2,4.2,3.3,7.2,3.3c3.5,0,6.2-1.4,8.2-4.1
			c1.9-2.7,2.9-6.6,2.9-11.5c0-4.4-0.9-7.7-2.6-9.9c-1.7-2.2-4.3-3.3-7.7-3.3c-3.2,0-5.7,1.2-7.7,3.6
			C927.8,306.6,926.8,309.8,926.8,313.7z"/>
		<path class="st0" d="M1005.2,302.9c-0.6-0.1-1.3-0.2-1.9-0.3c-0.7-0.1-1.4-0.1-2.1-0.1c-4.1,0-7.1,1.2-9.1,3.6
			c-2,2.4-3,5.8-3,10.1v23.9h-15.4v-50h15.4v9.3h0.2c1.2-3.4,2.9-5.9,5.1-7.6c2.2-1.7,4.9-2.5,8.1-2.5c0.7,0,1.4,0,2.1,0.1
			c0.7,0.1,1.4,0.2,2.2,0.4L1005.2,302.9z"/>
		<path class="st0" d="M1054.9,340.1h-14.6v-7.2h-0.2c-1.7,2.8-3.7,4.9-6.2,6.3c-2.5,1.4-5.3,2.1-8.5,2.1c-4.3,0-8-1.3-11.2-4
			c-3.1-2.7-4.7-6.4-4.7-11.2c0-4.6,1.5-8.4,4.6-11.3c3.1-2.9,7.9-4.8,14.4-5.7l11.8-1.6v-1c0-2.4-0.8-4.2-2.3-5.4
			c-1.5-1.2-3.6-1.8-6.3-1.8c-2.1,0-4.3,0.3-6.9,1c-2.5,0.7-5.1,1.8-7.7,3.3l-5.2-9.1c3.4-2,6.8-3.4,10.2-4.3c3.4-0.9,7-1.3,11-1.3
			c7.5,0,12.9,1.8,16.5,5.3c3.5,3.5,5.3,8.9,5.3,16V340.1L1054.9,340.1z M1040.4,319.8v-3.4l-9.1,1.2c-2.5,0.3-4.4,1.1-5.6,2.3
			c-1.3,1.2-1.9,2.7-1.9,4.5s0.6,3.2,1.8,4.3c1.2,1.1,2.9,1.7,5,1.7c2.9,0,5.3-1,7.1-3C1039.5,325.3,1040.4,322.8,1040.4,319.8z"/>
		<path class="st0" d="M1062.2,335.7l6.3-10.3c1.7,1.3,3.7,2.4,6,3.4c2.3,0.9,4.9,1.4,7.7,1.4c2,0,3.6-0.4,4.9-1.1s1.9-1.8,1.9-3.2
			c0-1.1-0.5-2-1.4-2.7s-2.8-1.3-5.5-1.9c-6.2-1.3-10.7-3.1-13.5-5.5c-2.8-2.4-4.2-5.8-4.2-10.2c0-5.1,2-9.1,6.1-12.2
			c4.1-3,9-4.6,14.9-4.6c3.1,0,6,0.4,8.7,1.2c2.8,0.8,5.3,2,7.7,3.5l-5.8,9.9c-2-1.3-3.9-2.2-5.7-2.8c-1.8-0.6-3.6-0.9-5.5-0.9
			c-2,0-3.6,0.4-4.8,1.1c-1.2,0.7-1.8,1.7-1.8,2.9c0,1.4,0.6,2.4,1.8,3c1.2,0.6,3.5,1.2,6.7,1.9c5.8,1.2,9.9,3,12.4,5.5
			s3.7,5.9,3.7,10.1c0,5.1-1.9,9.2-5.8,12.4c-3.9,3.1-9,4.7-15.4,4.7c-3.5,0-6.8-0.4-10-1.3C1068.3,339.1,1065.2,337.6,1062.2,335.7
			z"/>
	</g>
</g>
<ellipse class="st1" cx="332.4" cy="253.5" rx="171.4" ry="195.5"/>
<ellipse class="st2" cx="332.8" cy="257.3" rx="163.2" ry="176.7"/>
<path class="st3" d="M434.1,333.8c-30.7,20.7-61.3,41.3-92,62c0-31,0-62,0-93c39.3-20,78.7-40,118-60
	C451.4,273.2,442.7,303.5,434.1,333.8z"/>
<path class="st1" d="M333.1,390.8c-11.3-6.7-22.7-13.3-34-20c-6.3-33.3-12.7-66.7-19-100c17.7,9.7,35.3,19.3,53,29
	C333.1,330.2,333.1,360.5,333.1,390.8z"/>
<path class="st1" d="M411.1,259.7c-0.7-16.3-1.3-32.7-2-49c16.7,8.7,33.3,17.3,50,26C443.1,244.4,427.1,252,411.1,259.7z"/>
<path class="st1" d="M290.1,363.1c-8-6.1-15.9-12.3-23.9-18.4c-8.3-32-16.7-64-25-96c9.6,6.4,19.3,12.8,28.9,19.2
	C276.7,299.7,283.4,331.4,290.1,363.1z"/>
<path class="st3" d="M237.6,216.3c-13.8-5-27.6-9.9-41.4-14.9l6.4-21.8c16.8,4.7,33.7,9.4,50.5,14.1
	C248,201.2,242.8,208.7,237.6,216.3z"/>
<path class="st3" d="M239.1,239.7c-1.7-8-3.3-16-5-24c6.3-7.3,12.7-14.7,19-22c5.7,22,11.3,44,17,66
	C259.8,253,249.5,246.4,239.1,239.7z"/>
<circle class="st3" cx="344.1" cy="154.7" r="46"/>
<path class="st3" d="M341.7,279.7c-14.5-33.7-29.1-67.3-43.6-101c8.8,18.8,28,30.6,48.4,29.8c19.1-0.7,36.4-12.3,44.6-29.8
	C374.7,212.4,358.2,246,341.7,279.7z"/>
<circle class="st2" cx="343.6" cy="155.2" r="37.5"/>
<path class="st1" d="M404.1,260.7c-12.7-6-25.3-12-38-18c7-14.3,14-28.7,21-43c5,2.7,10,5.3,15,8C402.8,225.4,403.5,243,404.1,260.7
	z"/>
<path class="st4" d="M401.1,265.7c-20,10.7-40,21.3-60,32c7.7-16.7,15.3-33.3,23-50C376.5,253.7,388.8,259.7,401.1,265.7z"/>
<path class="st4" d="M279.1,262.7c13-5.7,26-11.3,39-17c6.7,13.3,13.3,26.7,20,40c-1.3,2.7-2.7,5.3-4,8
	C315.8,283.4,297.5,273,279.1,262.7z"/>
<path class="st3" d="M293.1,184.7c-8.4-3.3-16.7-6.6-25.1-9.8c1.3-4.3,2.7-8.5,4-12.8c5,1.4,9.9,2.7,14.9,4.1
	C289,172.3,291.1,178.5,293.1,184.7z"/>
<path class="st3" d="M331.3,397.8c0.4,4.1-7.2,9.9-13.4,8.9c-10.2-1.8-13.6-22-10.3-24.1c1.2-0.8,2.7,1.2,12.2,7.1
	C328.6,395.1,331.1,395.6,331.3,397.8z"/>
<path class="st3" d="M288.4,371.6c-0.1,4.1-8.4,9-14.4,7.2c-9.9-3-10.9-23.5-7.3-25.2c1.3-0.6,2.5,1.6,11.2,8.5
	C286.1,368.5,288.4,369.4,288.4,371.6z"/>
<path class="st3" d="M433,340.1c2.1,1.4-1.4,14.9-7.8,15.6c-3.2,0.3-7-2.6-7-5c0-1.1,0.9-1.9,7-6C432.3,339.9,432.7,339.9,433,340.1
	z"/>
<path class="st5" d="M356.3,142.5c0,8.2-25.5,8.2-25.5,0s5.7-14.9,12.7-14.9C350.6,127.5,356.3,134.2,356.3,142.5z"/>
<path class="st3" d="M340.1,174.4c-7,1.1-13.9,2.2-20.9,3.3c1.7-11.2,3.3-22.3,5-33.5c13-2.2,25.9-4.5,38.9-6.7
	c-0.1,0.9-0.3,2.4-0.4,4.2c-0.5,4.6-0.7,6.2-0.8,7.5c-0.9,8.5-0.8,16.7-0.8,16.7l0,0c0,0,0.5,1.1,0.9,1.8c1,1.7,1.7,1.8,1.6,2.4
	c-0.1,0.7-1.6,1.1-5,1.7c-2.9,0.5-4.3,0.8-5,0.8C350.4,173,346.2,173.5,340.1,174.4z"/>
<ellipse class="st6" cx="330.4" cy="148" rx="1.3" ry="2.1"/>
<ellipse class="st6" cx="356.4" cy="146.4" rx="1.3" ry="2.1"/>
<path class="st1" d="M365.1,170.2c-1.1-1.7-2.2-3.3-3.3-5c1.1-17.3,2-25.9,2.5-25.9C364.9,139.3,365.2,149.6,365.1,170.2z"/>
<path class="st1" d="M363.5,175.2c-26.2,2.2-39.3,3-39.3,2.5c-0.1-0.5,13.6-2.5,41-5.9C364.6,173,364,174.1,363.5,175.2z"/>
<circle class="st1" cx="330.4" cy="148" r="1.3"/>
<circle class="st1" cx="356.4" cy="146.4" r="1.3"/>
</svg>
